<?xml version="1.0" encoding="UTF-8"?>
<svg viewBox="0 0 441 160" version="1.1" 
    xmlns="http://www.w3.org/2000/svg" 
    xmlns:xlink="http://www.w3.org/1999/xlink">
    <!-- Generator: Sketch 50.2 (55047) - http://www.bohemiancoding.com/sketch -->
    <title>Artboard</title>
    <desc>Created with Sketch.</desc>
    <defs></defs>
    <g id="Artboard" stroke="none" stroke-width="1" fill="none" fill-rule="evenodd">
        <path d="M35.536,72.472 L31.792,83.512 C31.4719984,84.4080045 31.1520016,85.3679949 30.832,86.392 C30.5119984,87.4160051 30.1920016,88.3439958 29.872,89.176 C29.5519984,90.0080042 29.1840021,90.6959973 28.768,91.24 C28.3519979,91.7840027 27.8560029,92.056 27.28,92.056 C26.3839955,92.056 25.7440019,91.7360032 25.36,91.096 C24.9759981,90.4559968 25.1039968,89.2080093 25.744,87.352 L46.096,28.024 C46.7360032,26.0399901 48.0479901,25.048 50.032,25.048 C52.1440106,25.048 53.5199968,26.0399901 54.16,28.024 L74.512,87.448 C74.704001,87.9600026 74.8639994,88.4719974 74.992,88.984 C75.1200006,89.4960026 75.1520003,89.9919976 75.088,90.472 C75.0239997,90.9520024 74.8320016,91.3359986 74.512,91.624 C74.1919984,91.9120014 73.6800035,92.056 72.976,92.056 C71.6319933,92.056 70.7360022,91.0640099 70.288,89.08 L64.624,72.472 L35.536,72.472 Z M63.28,68.344 L50.128,29.656 L36.976,68.344 L63.28,68.344 Z M115.504,86.968 C117.360009,86.968 118.288,87.6399933 118.288,88.984 C118.288,90.3280067 117.360009,91 115.504,91 L91.792,91 C89.2959875,91 88.048,89.9760102 88.048,87.928 L88.048,27.736 C88.048,25.8799907 88.7839926,24.952 90.256,24.952 C91.7280074,24.952 92.464,25.8799907 92.464,27.736 L92.464,86.968 L115.504,86.968 Z M180.976,62.488 L162.544,62.488 C160.431989,62.488 159.376,61.784007 159.376,60.376 C159.376,58.775992 160.431989,57.976 162.544,57.976 L180.784,57.976 C182.512009,57.976 183.727996,58.3599962 184.432,59.128 C185.136004,59.8960038 185.488,61.3999888 185.488,63.64 C185.488,67.2880182 185.024005,70.8559826 184.096,74.344 C183.167995,77.8320174 181.68001,80.9519862 179.632,83.704 C177.58399,86.4560138 174.896017,88.6799915 171.568,90.376 C168.239983,92.0720085 164.176024,92.92 159.376,92.92 C154.767977,92.92 150.592019,91.9600096 146.848,90.04 C143.103981,88.1199904 139.904013,85.5760158 137.248,82.408 C134.591987,79.2399842 132.528007,75.6240203 131.056,71.56 C129.583993,67.4959797 128.848,63.2880218 128.848,58.936 C128.848,54.5839782 129.583993,50.312021 131.056,46.12 C132.528007,41.927979 134.591987,38.2000163 137.248,34.936 C139.904013,31.6719837 143.071982,29.0320101 146.752,27.016 C150.432018,24.9999899 154.479978,23.992 158.896,23.992 C161.584013,23.992 164.175988,24.2799971 166.672,24.856 C169.168012,25.4320029 171.631988,26.423993 174.064,27.832 C176.496012,29.240007 178.287994,30.5359941 179.44,31.72 C180.592006,32.9040059 181.168,33.9119958 181.168,34.744 C181.168,35.1920022 181.056001,35.6239979 180.832,36.04 C180.607999,36.4560021 180.288002,36.759999 179.872,36.952 C179.455998,37.144001 178.960003,37.1760006 178.384,37.048 C177.807997,36.9199994 177.168004,36.5360032 176.464,35.896 C174.735991,34.3599923 173.120008,33.096005 171.616,32.104 C170.111992,31.111995 168.656007,30.3280029 167.248,29.752 C165.839993,29.1759971 164.416007,28.7760011 162.976,28.552 C161.535993,28.3279989 160.048008,28.216 158.512,28.216 C154.991982,28.216 151.712015,29.111991 148.672,30.904 C145.631985,32.696009 142.976011,35.0319856 140.704,37.912 C138.431989,40.7920144 136.656006,44.0239821 135.376,47.608 C134.095994,51.1920179 133.456,54.8079818 133.456,58.456 C133.456,62.2320189 134.095994,65.9279819 135.376,69.544 C136.656006,73.1600181 138.447988,76.3759859 140.752,79.192 C143.056012,82.0080141 145.807984,84.2799914 149.008,86.008 C152.208016,87.7360086 155.695981,88.6 159.472,88.6 C163.824022,88.6 167.391986,87.8320077 170.176,86.296 C172.960014,84.7599923 175.151992,82.7600123 176.752,80.296 C178.352008,77.8319877 179.455997,75.0480155 180.064,71.944 C180.672003,68.8399845 180.976,65.688016 180.976,62.488 Z M204.592,72.472 L200.848,83.512 C200.527998,84.4080045 200.208002,85.3679949 199.888,86.392 C199.567998,87.4160051 199.248002,88.3439958 198.928,89.176 C198.607998,90.0080042 198.240002,90.6959973 197.824,91.24 C197.407998,91.7840027 196.912003,92.056 196.336,92.056 C195.439996,92.056 194.800002,91.7360032 194.416,91.096 C194.031998,90.4559968 194.159997,89.2080093 194.8,87.352 L215.152,28.024 C215.792003,26.0399901 217.10399,25.048 219.088,25.048 C221.200011,25.048 222.575997,26.0399901 223.216,28.024 L243.568,87.448 C243.760001,87.9600026 243.919999,88.4719974 244.048,88.984 C244.176001,89.4960026 244.208,89.9919976 244.144,90.472 C244.08,90.9520024 243.888002,91.3359986 243.568,91.624 C243.247998,91.9120014 242.736004,92.056 242.032,92.056 C240.687993,92.056 239.792002,91.0640099 239.344,89.08 L233.68,72.472 L204.592,72.472 Z M232.336,68.344 L219.184,29.656 L206.032,68.344 L232.336,68.344 Z M258.064,29.656 C258.064,28.1839926 258.303998,27.2400021 258.784,26.824 C259.264002,26.4079979 260.303992,26.2 261.904,26.2 L278.128,26.2 C284.336031,26.2 289.119983,27.6719853 292.48,30.616 C295.840017,33.5600147 297.52,37.9439709 297.52,43.768 C297.52,49.4000282 295.888016,53.815984 292.624,57.016 C289.359984,60.216016 284.528032,61.816 278.128,61.816 L270.16,61.816 L293.104,83.704 C293.808004,84.4080035 294.527996,85.0959966 295.264,85.768 C296.000004,86.4400034 296.607998,87.0959968 297.088,87.736 C297.568002,88.3760032 297.871999,88.9839971 298,89.56 C298.128001,90.1360029 297.968002,90.6479978 297.52,91.096 C296.431995,92.1840054 295.152007,92.0560067 293.68,90.712 L264.592,61.816 L262.48,61.816 L262.48,88.888 C262.48,90.9360102 261.808007,91.96 260.464,91.96 C258.863992,91.96 258.064,90.9360102 258.064,88.888 L258.064,29.656 Z M262.48,57.784 L278.128,57.784 C288.11205,57.784 293.104,53.2080458 293.104,44.056 C293.104,34.9039542 288.11205,30.328 278.128,30.328 L262.48,30.328 L262.48,57.784 Z M337.168,88.312 C336.271996,90.7440122 335.120007,91.96 333.712,91.96 C333.007996,91.96 332.384003,91.7360022 331.84,91.288 C331.295997,90.8399978 330.768003,89.8480077 330.256,88.312 L309.616,28.984 C309.359999,28.2799965 309.232,27.5920034 309.232,26.92 C309.232,26.2479966 309.487997,25.7520016 310,25.432 C310.576003,25.0479981 311.199997,24.9199994 311.872,25.048 C312.544003,25.1760006 313.135997,25.943993 313.648,27.352 L333.808,85.624 L353.776,26.968 C354.224002,25.6239933 354.959995,24.952 355.984,24.952 C356.816004,25.0160003 357.455998,25.3359971 357.904,25.912 C358.352002,26.4880029 358.320003,27.5119926 357.808,28.984 L337.168,88.312 Z M374.512,86.968 L400.144,86.968 C401.040004,86.968 401.983995,86.9360003 402.976,86.872 C403.968005,86.8079997 404.863996,86.8239995 405.664,86.92 C406.464004,87.0160005 407.119997,87.2079986 407.632,87.496 C408.144003,87.7840014 408.4,88.2799965 408.4,88.984 C408.4,89.8800045 408.160002,90.4399989 407.68,90.664 C407.199998,90.8880011 406.416005,91 405.328,91 L373.36,91 C372.143994,91 371.296002,90.8080019 370.816,90.424 C370.335998,90.0399981 370.096,89.1120074 370.096,87.64 L370.096,29.56 C370.096,28.2799936 370.303998,27.4000024 370.72,26.92 C371.136002,26.4399976 372.015993,26.2 373.36,26.2 L404.368,26.2 C405.392005,26.2 406.159997,26.3439986 406.672,26.632 C407.184003,26.9200014 407.44,27.4479962 407.44,28.216 C407.44,28.9840038 407.184003,29.5119986 406.672,29.8 C406.159997,30.0880014 405.392005,30.232 404.368,30.232 L374.512,30.232 L374.512,55.48 L403.408,55.48 C404.560006,55.48 405.359998,55.6079987 405.808,55.864 C406.256002,56.1200013 406.48,56.6959955 406.48,57.592 C406.48,58.3600038 406.256002,58.8719987 405.808,59.128 C405.359998,59.3840013 404.560006,59.512 403.408,59.512 L374.512,59.512 L374.512,86.968 Z" id="ALGARVE" fill="#FFFFFF"></path>
        <path d="M267.997079,135 C264.679619,135 260.778286,133.755556 257,132.065449 L261.516571,127.511416 L276,127 C275.12419,134.094064 271.107048,135 267.997079,135 Z M240.22241,143 L232,134.80572 L240.843341,126 C242.819479,127.387404 246.579562,129.906832 251,132.261736 L240.22241,143 Z M217.998801,143 L210,134.998801 L217.998801,127 L226,134.998801 L217.998801,143 Z M196.777922,143 L186,132.263287 C190.419121,129.908723 194.177714,127.392114 196.159294,126 L205,134.806904 L196.777922,143 Z M169.001524,135 C165.888748,135 161.873508,134.094064 161,127 L175.485268,127.511416 L180,132.067884 C176.22606,133.755556 172.321819,135 169.001524,135 Z M169.00254,113 C172.320843,113 176.225581,114.244444 180,115.932116 L175.487108,120.488584 L161,121 C161.873619,113.903501 165.889369,113 169.00254,113 Z M194,124.654552 C191.821395,126.159869 187.936257,128.7081 183.531082,131 L178,125.498937 L178,123.49855 L183.526033,118 C187.936257,120.2919 191.81887,122.837618 194,124.342934 L193.843484,124.498743 L194,124.654552 Z M196.777922,105 L205,113.191824 L196.159294,122 C194.177714,120.61014 190.419121,118.095623 186,115.738264 L196.777922,105 Z M215,124 L207.001199,132 L199,124 L207.001199,116 L215,124 Z M217.998801,105 L226,113 L217.998801,121 L210,113 L217.998801,105 Z M237,124 L229.001199,132 L221,124 L229.001199,116 L237,124 Z M240.22241,105 L251,115.738264 C246.579562,118.095623 242.819479,120.61014 240.843341,122 L232,113.191824 L240.22241,105 Z M243,124.342995 C245.184343,122.838261 249.065657,120.296039 253.474747,118 L259,123.501449 L259,125.501063 L253.479798,131 C249.068182,128.706473 245.184343,126.161739 243,124.657005 L243.159091,124.501256 L243,124.342995 Z M267.997079,113 C271.107048,113 275.12419,113.903501 276,121 L261.516571,120.488584 L257,115.932116 C260.77346,114.242009 264.677206,113 267.997079,113 Z M425,124 L279.215706,121.000099 C278.250993,111.926263 272.837337,109.914797 268.224344,109.914797 C264.115744,109.914797 259.360737,111.516062 254.921588,113.589305 L240.460687,99 L229.481568,110.082831 L218.5,99 L207.520881,110.08036 L196.539313,99 L182.08086,113.589305 C177.639263,111.516062 172.881808,109.914797 168.775656,109.914797 C164.162663,109.914797 158.749007,111.926263 157.786742,121.000099 L12,124 L157.786742,126.999901 C158.749007,136.071266 164.162663,138.085203 168.775656,138.085203 C172.881808,138.085203 177.639263,136.483938 182.08086,134.408224 L196.539313,149 L207.520881,137.91964 L218.5,149 L229.481568,137.917169 L240.460687,148.997529 L254.921588,134.408224 C259.360737,136.483938 264.115744,138.085203 268.224344,138.085203 C272.837337,138.085203 278.250993,136.073737 279.215706,126.999901 L425,124 Z" id="Fill-5321" fill="#C5A778"></path>
    </g>
</svg>