<?xml version="1.0" encoding="UTF-8"?>
<svg width="363px" height="445px" viewBox="0 0 363 445" version="1.1" xmlns="http://www.w3.org/2000/svg" xmlns:xlink="http://www.w3.org/1999/xlink">
    <!-- Generator: Sketch 51 (57462) - http://www.bohemiancoding.com/sketch -->
    <title>Group 7</title>
    <desc>Created with Sketch.</desc>
    <defs>
        <filter x="-3.6%" y="-4.3%" width="107.3%" height="112.2%" filterUnits="objectBoundingBox" id="filter-1">
            <feOffset dx="0" dy="2" in="SourceAlpha" result="shadowOffsetOuter1"></feOffset>
            <feGaussianBlur stdDeviation="2" in="shadowOffsetOuter1" result="shadowBlurOuter1"></feGaussianBlur>
            <feColorMatrix values="0 0 0 0 0   0 0 0 0 0   0 0 0 0 0  0 0 0 0.5 0" type="matrix" in="shadowBlurOuter1" result="shadowMatrixOuter1"></feColorMatrix>
            <feMerge>
                <feMergeNode in="shadowMatrixOuter1"></feMergeNode>
                <feMergeNode in="SourceGraphic"></feMergeNode>
            </feMerge>
        </filter>
    </defs>
    <g id="Page-1" stroke="none" stroke-width="1" fill="none" fill-rule="evenodd">
        <g id="Group-7">
            <path d="M21.2012515,373.925 L17.8862515,383.7 C17.6029167,384.493337 17.3195862,385.343329 17.0362515,386.25 C16.7529167,387.156671 16.4695862,387.97833 16.1862515,388.715 C15.9029167,389.45167 15.5770867,390.060831 15.2087515,390.5425 C14.8404163,391.024169 14.401254,391.265 13.8912515,391.265 C13.0979142,391.265 12.5312532,390.98167 12.1912515,390.415 C11.8512498,389.848331 11.964582,388.743342 12.5312515,387.1 L30.5512515,334.57 C31.117921,332.813325 32.279576,331.935 34.0362515,331.935 C35.9062608,331.935 37.124582,332.813325 37.6912515,334.57 L55.7112515,387.185 C55.8812523,387.638336 56.0229176,388.091664 56.1362515,388.545 C56.2495854,388.998336 56.2779184,389.437498 56.2212515,389.8625 C56.1645845,390.287502 55.9945862,390.627499 55.7112515,390.8825 C55.4279167,391.137501 54.9745879,391.265 54.3512515,391.265 C53.1612455,391.265 52.3679201,390.386675 51.9712515,388.63 L46.9562515,373.925 L21.2012515,373.925 Z M45.7662515,370.27 L34.1212515,336.015 L22.4762515,370.27 L45.7662515,370.27 Z M92.0062515,386.76 C93.649593,386.76 94.4712515,387.354994 94.4712515,388.545 C94.4712515,389.735006 93.649593,390.33 92.0062515,390.33 L71.0112515,390.33 C68.8012404,390.33 67.6962515,389.423342 67.6962515,387.61 L67.6962515,334.315 C67.6962515,332.671658 68.3479116,331.85 69.6512515,331.85 C70.9545913,331.85 71.6062515,332.671658 71.6062515,334.315 L71.6062515,386.76 L92.0062515,386.76 Z M149.976251,365.085 L133.656251,365.085 C131.786242,365.085 130.851251,364.461673 130.851251,363.215 C130.851251,361.798326 131.786242,361.09 133.656251,361.09 L149.806251,361.09 C151.336259,361.09 152.412915,361.429997 153.036251,362.11 C153.659588,362.790003 153.971251,364.121657 153.971251,366.105 C153.971251,369.335016 153.560422,372.494151 152.738751,375.5825 C151.917081,378.670849 150.599594,381.433321 148.786251,383.87 C146.972909,386.306679 144.592933,388.275826 141.646251,389.7775 C138.69957,391.279174 135.101273,392.03 130.851251,392.03 C126.771231,392.03 123.073768,391.180009 119.758751,389.48 C116.443735,387.779992 113.61043,385.527514 111.258751,382.7225 C108.907073,379.917486 107.079591,376.715851 105.776251,373.1175 C104.472912,369.519149 103.821251,365.793353 103.821251,361.94 C103.821251,358.086647 104.472912,354.304185 105.776251,350.5925 C107.079591,346.880815 108.907073,343.580014 111.258751,340.69 C113.61043,337.799986 116.415402,335.462509 119.673751,333.6775 C122.932101,331.892491 126.516232,331 130.426251,331 C132.806263,331 135.10124,331.254997 137.311251,331.765 C139.521263,332.275003 141.702907,333.153327 143.856251,334.4 C146.009596,335.646673 147.596246,336.794161 148.616251,337.8425 C149.636257,338.890839 150.146251,339.78333 150.146251,340.52 C150.146251,340.916669 150.047086,341.299165 149.848751,341.6675 C149.650417,342.035835 149.367087,342.304999 148.998751,342.475 C148.630416,342.645001 148.191254,342.673334 147.681251,342.56 C147.171249,342.446666 146.604588,342.10667 145.981251,341.54 C144.451244,340.179993 143.020425,339.060838 141.688751,338.1825 C140.357078,337.304162 139.067924,336.610003 137.821251,336.1 C136.574579,335.589997 135.313758,335.235834 134.038751,335.0375 C132.763745,334.839166 131.446258,334.74 130.086251,334.74 C126.969569,334.74 124.065432,335.533325 121.373751,337.12 C118.682071,338.706675 116.330428,340.774987 114.318751,343.325 C112.307075,345.875013 110.73459,348.736651 109.601251,351.91 C108.467912,355.083349 107.901251,358.284984 107.901251,361.515 C107.901251,364.85835 108.467912,368.130817 109.601251,371.3325 C110.73459,374.534183 112.321241,377.381654 114.361251,379.875 C116.401262,382.368346 118.837904,384.379992 121.671251,385.91 C124.504599,387.440008 127.592901,388.205 130.936251,388.205 C134.789604,388.205 137.948739,387.525007 140.413751,386.165 C142.878764,384.804993 144.819578,383.034178 146.236251,380.8525 C147.652925,378.670822 148.630415,376.205847 149.168751,373.4575 C149.707088,370.709153 149.976251,367.918348 149.976251,365.085 Z M170.886251,373.925 L167.571251,383.7 C167.287917,384.493337 167.004586,385.343329 166.721251,386.25 C166.437917,387.156671 166.154586,387.97833 165.871251,388.715 C165.587917,389.45167 165.262087,390.060831 164.893751,390.5425 C164.525416,391.024169 164.086254,391.265 163.576251,391.265 C162.782914,391.265 162.216253,390.98167 161.876251,390.415 C161.53625,389.848331 161.649582,388.743342 162.216251,387.1 L180.236251,334.57 C180.802921,332.813325 181.964576,331.935 183.721251,331.935 C185.591261,331.935 186.809582,332.813325 187.376251,334.57 L205.396251,387.185 C205.566252,387.638336 205.707918,388.091664 205.821251,388.545 C205.934585,388.998336 205.962918,389.437498 205.906251,389.8625 C205.849585,390.287502 205.679586,390.627499 205.396251,390.8825 C205.112917,391.137501 204.659588,391.265 204.036251,391.265 C202.846246,391.265 202.05292,390.386675 201.656251,388.63 L196.641251,373.925 L170.886251,373.925 Z M195.451251,370.27 L183.806251,336.015 L172.161251,370.27 L195.451251,370.27 Z M218.231251,336.015 C218.231251,334.71166 218.443749,333.875835 218.868751,333.5075 C219.293754,333.139165 220.214578,332.955 221.631251,332.955 L235.996251,332.955 C241.492946,332.955 245.728737,334.25832 248.703751,336.865 C251.678766,339.47168 253.166251,343.353308 253.166251,348.51 C253.166251,353.496692 251.721266,357.406653 248.831251,360.24 C245.941237,363.073348 241.662946,364.49 235.996251,364.49 L228.941251,364.49 L249.256251,383.87 C249.879588,384.493336 250.517082,385.102497 251.168751,385.6975 C251.820421,386.292503 252.358749,386.873331 252.783751,387.44 C253.208754,388.00667 253.477918,388.544997 253.591251,389.055 C253.704585,389.565003 253.56292,390.018331 253.166251,390.415 C252.202913,391.378338 251.069591,391.265006 249.766251,390.075 L224.011251,364.49 L222.141251,364.49 L222.141251,388.46 C222.141251,390.273342 221.546257,391.18 220.356251,391.18 C218.939578,391.18 218.231251,390.273342 218.231251,388.46 L218.231251,336.015 Z M222.141251,360.92 L235.996251,360.92 C244.836296,360.92 249.256251,356.868374 249.256251,348.765 C249.256251,340.661626 244.836296,336.61 235.996251,336.61 L222.141251,336.61 L222.141251,360.92 Z M288.271251,387.95 C287.477914,390.103344 286.457924,391.18 285.211251,391.18 C284.587915,391.18 284.035421,390.981669 283.553751,390.585 C283.072082,390.188331 282.604587,389.310007 282.151251,387.95 L263.876251,335.42 C263.649584,334.796664 263.536251,334.187503 263.536251,333.5925 C263.536251,332.997497 263.762916,332.558335 264.216251,332.275 C264.726254,331.934998 265.278749,331.821666 265.873751,331.935 C266.468754,332.048334 266.992916,332.728327 267.446251,333.975 L285.296251,385.57 L302.976251,333.635 C303.37292,332.444994 304.02458,331.85 304.931251,331.85 C305.667922,331.906667 306.234583,332.189997 306.631251,332.7 C307.02792,333.210003 306.999587,334.11666 306.546251,335.42 L288.271251,387.95 Z M321.336251,386.76 L344.031251,386.76 C344.824589,386.76 345.660414,386.731667 346.538751,386.675 C347.417089,386.618333 348.210415,386.6325 348.918751,386.7175 C349.627088,386.8025 350.207916,386.972499 350.661251,387.2275 C351.114587,387.482501 351.341251,387.921664 351.341251,388.545 C351.341251,389.338337 351.128754,389.834166 350.703751,390.0325 C350.278749,390.230834 349.58459,390.33 348.621251,390.33 L320.316251,390.33 C319.239579,390.33 318.488754,390.160002 318.063751,389.82 C317.638749,389.479998 317.426251,388.65834 317.426251,387.355 L317.426251,335.93 C317.426251,334.796661 317.610416,334.017502 317.978751,333.5925 C318.347087,333.167498 319.126246,332.955 320.316251,332.955 L347.771251,332.955 C348.677923,332.955 349.357916,333.082499 349.811251,333.3375 C350.264587,333.592501 350.491251,334.059997 350.491251,334.74 C350.491251,335.420003 350.264587,335.887499 349.811251,336.1425 C349.357916,336.397501 348.677923,336.525 347.771251,336.525 L321.336251,336.525 L321.336251,358.88 L346.921251,358.88 C347.941257,358.88 348.649583,358.993332 349.046251,359.22 C349.44292,359.446668 349.641251,359.956663 349.641251,360.75 C349.641251,361.430003 349.44292,361.883332 349.046251,362.11 C348.649583,362.336668 347.941257,362.45 346.921251,362.45 L321.336251,362.45 L321.336251,386.76 Z" id="ALGARVE" fill="#333230"></path>
            <path d="M50.2329545,0.227272727 C51.7291741,0.227272727 52.827648,0.639200426 53.5284091,1.46306818 C54.1439425,2.18276875 54.4517045,3.18654659 54.4517045,4.47443182 L54.4517045,7.05965909 C54.4517045,8.31913509 53.9734896,9.38446534 53.0170455,10.2556818 L55.0056818,18.0255682 L52.1079545,18.0255682 L50.4744318,11.3068182 C50.3986739,11.3162879 50.3181822,11.3210227 50.2329545,11.3210227 L48.6846591,11.3210227 L48.6846591,18.0255682 L46,18.0255682 L46,0.227272727 L50.2329545,0.227272727 Z M51.8380682,4.51704545 C51.8380682,3.48484332 51.3267097,2.96875 50.3039773,2.96875 L48.6846591,2.96875 L48.6846591,8.66477273 L50.3039773,8.66477273 C50.7301158,8.66477273 51.0923281,8.51325909 51.390625,8.21022727 C51.6889219,7.90719545 51.8380682,7.54261577 51.8380682,7.11647727 L51.8380682,4.51704545 Z M73.9734842,18.0255682 L73.9734842,0.213068182 L81.6155297,0.213068182 L81.6155297,2.89772727 L76.6581433,2.89772727 L76.6581433,7.76988636 L80.2803024,7.76988636 L80.2803024,10.46875 L76.6581433,10.46875 L76.6581433,15.3409091 L81.6155297,15.3409091 L81.6155297,18.0255682 L73.9734842,18.0255682 Z M109.006628,13.59375 C109.025567,14.8342865 108.703601,15.894882 108.040718,16.7755682 C107.60511,17.3721621 106.989586,17.7935594 106.194128,18.0397727 C105.767989,18.1723491 105.270835,18.2386364 104.70265,18.2386364 C103.651509,18.2386364 102.780305,17.9782223 102.089014,17.4573864 C101.511359,17.0312479 101.054451,16.4512347 100.718275,15.7173295 C100.382099,14.9834244 100.185605,14.1429972 100.128787,13.1960227 L102.685605,13.0113636 C102.799242,14.0435658 103.07386,14.7916643 103.509468,15.2556818 C103.83144,15.6060624 104.200754,15.7717804 104.617423,15.7528409 C105.204547,15.7339014 105.673292,15.4450786 106.023673,14.8863636 C106.203598,14.6117411 106.293559,14.2187526 106.293559,13.7073864 C106.293559,12.9687463 105.957388,12.2348521 105.285037,11.5056818 L102.898673,9.24715909 C102.008517,8.38541236 101.378788,7.61363977 101.009468,6.93181818 C100.611739,6.16476889 100.412878,5.33144389 100.412878,4.43181818 C100.412878,2.8124919 100.95738,1.58617841 102.0464,0.752840909 C102.718752,0.25094446 103.552077,0 104.5464,0 C105.502844,0 106.321965,0.213066051 107.003787,0.639204545 C107.534092,0.970645597 107.962592,1.43465611 108.289298,2.03125 C108.616004,2.62784389 108.812498,3.31439006 108.878787,4.09090909 L106.307764,4.55965909 C106.232006,3.83048878 106.023675,3.26231264 105.682764,2.85511364 C105.436551,2.56155156 105.08144,2.41477273 104.617423,2.41477273 C104.124996,2.41477273 103.750947,2.63257358 103.495264,3.06818182 C103.28693,3.41856236 103.182764,3.85416406 103.182764,4.375 C103.182764,5.18939801 103.533139,6.01798821 104.2339,6.86079545 C104.499053,7.18276676 104.896776,7.56155085 105.427082,7.99715909 C106.052085,8.51799503 106.464013,8.88257472 106.662878,9.09090909 C107.32576,9.75379119 107.837118,10.4071937 108.196968,11.0511364 C108.367424,11.3541682 108.504733,11.6335214 108.6089,11.8892045 C108.864583,12.5236774 108.997158,13.0918536 109.006628,13.59375 Z M130.588066,18.0255682 L127.903407,18.0255682 L127.903407,0.227272727 L130.588066,0.227272727 L130.588066,18.0255682 Z M158.0928,13.7642045 C158.0928,14.9384528 157.680873,15.9422307 156.857005,16.7755682 C156.033137,17.6089057 155.038829,18.0255682 153.87405,18.0255682 L149.6553,18.0255682 L149.6553,0.213068182 L153.87405,0.213068182 C155.048299,0.213068182 156.044974,0.629730682 156.864107,1.46306818 C157.68324,2.29640568 158.0928,3.29544872 158.0928,4.46022727 L158.0928,13.7642045 Z M152.33996,15.3693182 L153.959278,15.3693182 C154.385416,15.3693182 154.745261,15.2154371 155.038823,14.9076705 C155.332385,14.5999038 155.479164,14.2376915 155.479164,13.8210227 L155.479164,4.50284091 C155.479164,4.07670241 155.330018,3.71212273 155.031721,3.40909091 C154.733424,3.10605909 154.375947,2.95454545 153.959278,2.95454545 L152.33996,2.95454545 L152.33996,15.3693182 Z M177.117421,18.0255682 L177.117421,0.213068182 L184.759467,0.213068182 L184.759467,2.89772727 L179.80208,2.89772727 L179.80208,7.76988636 L183.424239,7.76988636 L183.424239,10.46875 L179.80208,10.46875 L179.80208,15.3409091 L184.759467,15.3409091 L184.759467,18.0255682 L177.117421,18.0255682 Z M206.298292,0.213068182 L209.849428,12.1732955 L209.849428,0.213068182 L212.534087,0.213068182 L212.534087,18.0255682 L209.650564,18.0255682 L205.957383,6.61931818 L205.957383,18.0255682 L203.272723,18.0255682 L203.272723,0.213068182 L206.298292,0.213068182 Z M235.820071,18.2528409 C234.636353,18.2528409 233.630208,17.8385458 232.801605,17.0099432 C231.973003,16.1813406 231.558708,15.1799301 231.558708,14.0056818 L231.558708,4.28977273 C231.558708,3.10605469 231.97537,2.09990945 232.808708,1.27130682 C233.642045,0.44270419 234.645823,0.0284090909 235.820071,0.0284090909 C237.003789,0.0284090909 238.007567,0.445071591 238.831435,1.27840909 C239.655303,2.11174659 240.06723,3.11552443 240.06723,4.28977273 L240.06723,6.32102273 L237.283139,6.32102273 L237.283139,4.23295455 C237.283139,3.80681605 237.131626,3.44223636 236.828594,3.13920455 C236.525562,2.83617273 236.160983,2.68465909 235.734844,2.68465909 C235.308706,2.68465909 234.946493,2.83617273 234.648196,3.13920455 C234.349899,3.44223636 234.200753,3.80681605 234.200753,4.23295455 L234.200753,13.9772727 C234.200753,14.4034112 234.349899,14.7656235 234.648196,15.0639205 C234.946493,15.3622174 235.308706,15.5113636 235.734844,15.5113636 C236.160983,15.5113636 236.525562,15.3622174 236.828594,15.0639205 C237.131626,14.7656235 237.283139,14.4034112 237.283139,13.9772727 L237.283139,11.5198864 L240.06723,11.5198864 L240.06723,14.0056818 C240.06723,15.1893999 239.650568,16.1931777 238.81723,17.0170455 C237.983893,17.8409132 236.98485,18.2528409 235.820071,18.2528409 Z M261.62026,18.0255682 L258.935601,18.0255682 L258.935601,0.227272727 L261.62026,0.227272727 L261.62026,18.0255682 Z M283.982949,13.9346591 L283.32954,18.0255682 L280.531244,18.0255682 L283.556812,0.227272727 L287.249994,0.227272727 L290.232949,18.0255682 L287.420449,18.0255682 L286.781244,13.9346591 L283.982949,13.9346591 Z M285.389199,4.30397727 L284.394881,11.3210227 L286.383517,11.3210227 L285.389199,4.30397727 Z M316.473478,18.0255682 L309.158138,18.0255682 L309.158138,0.227272727 L311.842797,0.227272727 L311.842797,15.3551136 L316.473478,15.3551136 L316.473478,18.0255682 Z" id="residenciaL" fill="#FFFFFF"></path>
            <path d="M224.839492,433 C221.871238,433 218.380571,431.911111 215,430.432268 L219.041143,426.447489 L232,426 C231.216381,432.207306 227.622095,433 224.839492,433 Z M200.356893,440 L193,432.769753 L200.912463,425 C202.680586,426.22418 206.044871,428.447205 210,430.525061 L200.356893,440 Z M180.998951,440 L174,432.998951 L180.998951,426 L188,432.998951 L180.998951,440 Z M162.643404,440 L153,430.52643 C156.95395,428.448873 160.316902,426.228336 162.089895,425 L170,432.770797 L162.643404,440 Z M138.159258,433 C135.374143,433 131.78156,432.207306 131,426 L143.960503,426.447489 L148,430.434399 C144.623317,431.911111 141.130048,433 138.159258,433 Z M138.160168,413 C141.129176,413 144.622888,414.088889 148,415.565601 L143.962149,419.552511 L131,420 C131.781659,413.790563 135.374698,413 138.160168,413 Z M160,423.630775 C158.09372,424.904504 154.694225,427.0607 150.839697,429 L146,424.345254 L146,422.652619 L150.835279,418 C154.694225,419.9393 158.091512,422.093369 160,423.367098 L159.863048,423.498937 L160,423.630775 Z M162.643404,406 L170,413.22808 L162.089895,421 C160.316902,419.773653 156.95395,417.554962 153,415.474939 L162.643404,406 Z M178,423 L171.001049,430 L164,423 L171.001049,416 L178,423 Z M180.998951,406 L188,413 L180.998951,420 L174,413 L180.998951,406 Z M198,423 L191.001049,430 L184,423 L191.001049,416 L198,423 Z M200.356893,406 L210,415.474939 C206.044871,417.554962 202.680586,419.773653 200.912463,421 L193,413.22808 L200.356893,406 Z M203,423.36715 C204.911301,422.093913 208.307449,419.942802 212.165404,418 L217,422.655072 L217,424.347053 L212.169823,429 C208.309659,427.059324 204.911301,424.906087 203,423.63285 L203.139205,423.501063 L203,423.36715 Z M224.839492,413 C227.622095,413 231.216381,413.790563 232,420 L219.041143,419.552511 L215,415.565601 C218.376254,414.086758 221.869079,413 224.839492,413 Z M363,423 L234.865136,420.360087 C234.017217,412.375111 229.258967,410.605021 225.204448,410.605021 C221.593257,410.605021 217.413917,412.014135 213.512195,413.838589 L200.802009,401 L191.15208,410.752891 L181.5,401 L171.850072,410.750717 L162.197991,401 L149.489957,413.838589 C145.586083,412.014135 141.404591,410.605021 137.795552,410.605021 C133.741033,410.605021 128.982783,412.375111 128.137016,420.360087 L0,423 L128.137016,425.639913 C128.982783,433.622714 133.741033,435.394979 137.795552,435.394979 C141.404591,435.394979 145.586083,433.985865 149.489957,432.159237 L162.197991,445 L171.850072,435.249283 L181.5,445 L191.15208,435.247109 L200.802009,444.997825 L213.512195,432.159237 C217.413917,433.985865 221.593257,435.394979 225.204448,435.394979 C229.258967,435.394979 234.017217,433.624889 234.865136,425.639913 L363,423 Z" id="Fill-5321" fill="#C5A778"></path>
            <text id="©" font-family="OpenSans-Bold, Open Sans" font-size="14" font-weight="bold" fill="#000000">
                <tspan x="339" y="327">©</tspan>
            </text>
            <g id="Group-2-Copy" transform="translate(44.000000, 42.000000)" fill-rule="nonzero">
                <path d="M273,139.5 C273,213.154893 213.155433,273 139.5,273 C65.8445672,273 6,213.154893 6,139.5 C6,65.8451066 65.8451066,6 139.5,6 C213.154893,6 273,65.8451066 273,139.5" id="Shape" fill="#C5A778"></path>
                <path d="M257,139.5 C257,213.154893 200.867352,273 131.5,273 C62.1326475,273 6,213.154893 6,139.5 C6,65.8451066 62.1326475,6 131.5,6 C200.867352,6 257,65.8451066 257,139.5" id="Shape" fill="#E2D4AE"></path>
                <g id="Group" transform="translate(7.000000, 52.000000)" fill="#C5A778">
                    <path d="M56.4482474,28.4557664 C53.7298969,27.0792214 52.3707216,24.7848005 52.3707216,21.5730414 C52.3707216,18.3612822 51.4644278,15.1489854 49.6523711,11.4785572 C46.4811392,5.51370803 40.5910258,1.38407299 34.2485619,0.46619708 C32.8893866,0.46619708 31.0773299,0.00752798054 29.2647423,0.46619708 C15.2201082,16.9847372 5.25246907,36.7150365 0.269180412,58.7397567 C1.62835567,59.1984258 2.53464948,59.1984258 3.89382474,59.1984258 L47.8403144,59.1984258 C55.995366,59.1984258 63.6975361,53.2335766 64.603299,44.9743066 C65.9624742,37.6329124 61.8849485,31.2088564 56.4482474,28.4557664" id="Shape"></path>
                    <path d="M191.912892,179.417049 L205.504644,179.417049 L205.504644,124.355248 L51.4644278,124.355248 L51.4644278,179.417049 L65.0561804,179.417049 L65.0561804,204.194859 C84.084634,214.74855 105.378557,220.713399 128.484536,220.713399 C151.590515,220.713399 172.884438,214.74855 191.912892,204.194859 L191.912892,179.417049 Z" id="Shape"></path>
                </g>
                <path d="M137.375671,273 C138.734728,273 139.640943,273 141,273 C73.5,271.158264 19.5905684,212.234565 19.5905684,139.5 C19.5905684,66.7654354 73.5,7.84173647 141,6 C139.640943,6 138.734728,6 137.375671,6 C64.892817,6 6,65.8451066 6,139.5 C6,213.154893 64.892817,273 137.375671,273" id="Shape" fill="#FFFFFF"></path>
                <g id="Group" filter="url(#filter-1)" transform="translate(40.000000, 137.000000)" fill="#C5A778">
                    <path d="M159.715733,114.865922 C171.5488,108.534562 182.471467,99.9424194 191.573333,90.4456452 L159.715733,90.4456452 L159.715733,114.865922 Z" id="Shape"></path>
                    <path d="M32.2842667,114.865922 L32.2842667,90.4456452 L0.426666667,90.4456452 C9.52906667,99.9424194 20.4517333,108.534562 32.2842667,114.865922" id="Shape"></path>
                    <polygon id="Shape" points="50.4890667 18.0889171 141.510933 18.0889171 141.510933 0 50.4890667 0"></polygon>
                </g>
                <g id="Group" transform="translate(82.000000, 189.000000)">
                    <polygon id="Shape" fill="#E2D2BA" points="46.0411712 83.6275209 64.3294812 83.6275209 64.3294812 32.8084818 46.0411712 32.8084818"></polygon>
                    <polygon id="Shape" fill="#C5A778" points="0.32146792 14.3290774 14.0374325 14.3290774 14.0374325 0.469388676 0.32146792 0.469388676"></polygon>
                    <polygon id="Shape" fill="#C5A778" points="32.3252067 14.3290774 46.0411712 14.3290774 46.0411712 0.469388676 32.3252067 0.469388676"></polygon>
                    <polygon id="Shape" fill="#C5A778" points="64.3294812 14.3290774 78.0454458 14.3290774 78.0454458 0.469388676 64.3294812 0.469388676"></polygon>
                    <polygon id="Shape" fill="#C5A778" points="96.33322 14.3290774 110.049185 14.3290774 110.049185 0.469388676 96.33322 0.469388676"></polygon>
                    <path d="M82.6172554,80.8555831 C89.0182174,79.4696143 94.9616235,77.6218362 100.90503,75.7735168 L100.90503,32.8084818 L82.6172554,32.8084818 L82.6172554,80.8555831 Z" id="Shape" fill="#E2D2BA"></path>
                    <path d="M9.4656229,75.3117076 C15.409029,77.6218362 21.3529708,79.4696143 27.7533971,80.393774 L27.7533971,32.8084818 L9.4656229,32.8084818 L9.4656229,75.3117076 Z" id="Shape" fill="#E2D2BA"></path>
                </g>
                <g id="Group" fill="#0C0C0C">
                    <path d="M196.367023,178.1 L77.6335117,178.1 L77.6335117,150.7 L196.367023,150.7 L196.367023,178.1 Z M86.7664883,168.966488 L187.232977,168.966488 L187.232977,159.832977 L86.7664883,159.832977 L86.7664883,168.966488 Z" id="Shape"></path>
                    <path d="M187.233512,159.833512 L86.7664883,159.833512 L86.7664883,132.433512 L187.233512,132.433512 L187.233512,159.833512 Z M95.9,150.7 L178.1,150.7 L178.1,141.566488 L95.9,141.566488 L95.9,150.7 Z" id="Shape"></path>
                    <path d="M150.7,274 L123.3,274 L123.3,214.633512 L150.7,214.633512 L150.7,274 Z M132.433512,264.866488 L141.567023,264.866488 L141.567023,223.766488 L132.433512,223.766488 L132.433512,264.866488 Z" id="Shape"></path>
                    <path d="M150.7,141.566488 L123.3,141.566488 L123.3,63.9335117 L150.7,63.9335117 L150.7,141.566488 Z M132.433512,132.433512 L141.567023,132.433512 L141.567023,73.0664883 L132.433512,73.0664883 L132.433512,132.433512 Z" id="Shape"></path>
                    <path d="M137,73.0664883 C134.26,73.0664883 132.433512,71.24 132.433512,68.5 L132.433512,22.8335117 C132.433512,20.0935117 134.26,18.2670234 137,18.2670234 C139.74,18.2670234 141.566488,20.0935117 141.566488,22.8335117 L141.566488,68.5 C141.566488,71.24 139.74,73.0664883 137,73.0664883 Z" id="Shape"></path>
                    <path d="M146.133512,127.866488 L127.867023,127.866488 C125.127023,127.866488 123.300535,126.04 123.300535,123.3 C123.300535,120.56 125.127023,118.733512 127.867023,118.733512 L146.133512,118.733512 C148.873512,118.733512 150.7,120.56 150.7,123.3 C150.7,126.04 148.873512,127.866488 146.133512,127.866488 Z" id="Shape"></path>
                    <path d="M146.133512,114.166488 L127.867023,114.166488 C125.127023,114.166488 123.300535,112.34 123.300535,109.6 C123.300535,106.86 125.127023,105.033512 127.867023,105.033512 L146.133512,105.033512 C148.873512,105.033512 150.7,106.86 150.7,109.6 C150.7,112.34 148.873512,114.166488 146.133512,114.166488 Z" id="Shape"></path>
                    <path d="M146.133512,100.466488 L127.867023,100.466488 C125.127023,100.466488 123.300535,98.64 123.300535,95.9 C123.300535,93.16 125.127023,91.3335117 127.867023,91.3335117 L146.133512,91.3335117 C148.873512,91.3335117 150.7,93.16 150.7,95.9 C150.7,98.64 148.873512,100.466488 146.133512,100.466488 Z" id="Shape"></path>
                    <path d="M146.133512,86.7664883 L127.867023,86.7664883 C125.127023,86.7664883 123.300535,84.94 123.300535,82.2 C123.300535,79.46 125.127023,77.6335117 127.867023,77.6335117 L146.133512,77.6335117 C148.873512,77.6335117 150.7,79.46 150.7,82.2 C150.7,84.94 148.873512,86.7664883 146.133512,86.7664883 Z" id="Shape"></path>
                    <path d="M100.466488,205.5 L77.6329766,205.5 L77.6329766,182.666488 L100.466488,182.666488 L100.466488,205.5 Z M86.7664883,196.366488 L91.3329766,196.366488 L91.3329766,191.8 L86.7664883,191.8 L86.7664883,196.366488 Z" id="Shape"></path>
                    <path d="M132.433512,205.5 L109.6,205.5 L109.6,182.666488 L132.433512,182.666488 L132.433512,205.5 Z M118.733512,196.366488 L123.3,196.366488 L123.3,191.8 L118.733512,191.8 L118.733512,196.366488 Z" id="Shape"></path>
                    <path d="M164.4,205.5 L141.566488,205.5 L141.566488,182.666488 L164.4,182.666488 L164.4,205.5 Z M150.7,196.366488 L155.266488,196.366488 L155.266488,191.8 L150.7,191.8 L150.7,196.366488 Z" id="Shape"></path>
                    <path d="M196.366488,205.5 L173.532977,205.5 L173.532977,182.666488 L196.366488,182.666488 L196.366488,205.5 Z M182.666488,196.366488 L187.232977,196.366488 L187.232977,191.8 L182.666488,191.8 L182.666488,196.366488 Z" id="Shape"></path>
                    <path d="M132.433512,141.566488 L100.467023,141.566488 L100.467023,109.6 L109.6,109.6 L109.6,91.3335117 L132.433512,91.3335117 L132.433512,141.566488 Z M109.6,132.433512 L123.3,132.433512 L123.3,100.467023 L118.733512,100.467023 L118.733512,118.733512 L109.6,118.733512 L109.6,132.433512 Z" id="Shape"></path>
                    <path d="M173.533512,141.566488 L141.567023,141.566488 L141.567023,91.3329766 L164.4,91.3329766 L164.4,109.6 L173.533512,109.6 L173.533512,141.566488 Z M150.7,132.433512 L164.4,132.433512 L164.4,118.733512 L155.266488,118.733512 L155.266488,100.467023 L150.7,100.467023 L150.7,132.433512 Z" id="Shape"></path>
                    <path d="M137,274 C61.65,274 0,212.35 0,137 C0,61.65 61.65,0 137,0 C212.35,0 274,61.65 274,137 C274,212.35 212.35,274 137,274 Z M137,9.13351172 C66.6735117,9.13351172 9.13351172,66.6735117 9.13351172,137 C9.13351172,207.326488 66.6735117,264.866488 137,264.866488 C207.326488,264.866488 264.866488,207.326488 264.866488,137 C264.866488,66.6735117 207.326488,9.13351172 137,9.13351172 Z" id="Shape"></path>
                    <path d="M196.366488,260.756488 L196.366488,223.766488 L243.402977,223.766488 L236.096488,231.53 C226.506488,241.576488 215.09,250.253512 203.216488,257.103512 L196.366488,260.756488 Z M205.5,232.9 L205.5,244.773512 C210.98,241.12 216.46,237.01 221.483512,232.9 L205.5,232.9 Z" id="Shape"></path>
                    <path d="M77.6335117,260.756488 L70.7835117,257.102977 C58.4535117,250.252977 47.4935117,241.576488 37.9035117,231.529465 L30.5970234,223.765953 L77.6335117,223.765953 L77.6335117,260.756488 Z M52.5164883,232.9 C57.54,237.466488 63.02,241.576488 68.5,244.773512 L68.5,232.9 L52.5164883,232.9 Z" id="Shape"></path>
                    <path d="M137,274 C113.71,274 90.8764883,268.063512 70.7835117,257.103512 L68.5,255.733512 L68.5,232.9 L54.8,232.9 L54.8,168.966488 L219.2,168.966488 L219.2,232.9 L205.5,232.9 L205.5,255.733512 L203.216488,257.103512 C183.123512,268.063512 160.29,274 137,274 Z M77.6335117,250.253512 C95.9,259.843512 116.45,264.866488 137,264.866488 C157.55,264.866488 178.1,259.842977 196.366488,250.252977 L196.366488,223.766488 L210.066488,223.766488 L210.066488,178.1 L63.9335117,178.1 L63.9335117,223.766488 L77.6335117,223.766488 L77.6335117,250.253512 Z" id="Shape"></path>
                    <path d="M159.833512,272.173512 L159.833512,214.633512 L187.233512,214.633512 L187.233512,264.41 L184.037023,265.323512 C178.100535,267.607023 171.707023,269.433512 165.313512,270.803512 L159.833512,272.173512 Z M168.966488,223.766488 L168.966488,260.756488 C172.162977,259.842977 174.902977,258.93 178.1,258.016488 L178.1,223.766488 L168.966488,223.766488 Z" id="Shape"></path>
                    <path d="M114.166488,272.173512 L108.686488,270.803512 C102.292977,269.433512 95.9,267.607023 89.9629766,265.323512 L86.7664883,264.41 L86.7664883,214.633512 L114.166488,214.633512 L114.166488,272.173512 Z M95.9,258.016488 C99.0964883,258.93 101.836488,259.842977 105.033512,260.756488 L105.033512,223.766488 L95.9,223.766488 L95.9,258.016488 Z" id="Shape"></path>
                    <path d="M56.17,113.253512 L11.4164883,113.253512 C9.59,113.253512 8.22,113.253512 6.39297656,112.797023 L2.28297656,111.883512 L3.19648828,107.317023 C8.22,85.3970234 18.7229766,64.8470234 33.3364883,47.4935117 L34.7064883,45.6670234 L36.5329766,45.6670234 C38.3594648,45.6670234 40.1864883,45.6670234 42.0129766,45.6670234 C49.7764883,46.5805352 57.0829766,51.6035117 61.1929766,58.9105352 C63.4764883,63.0205352 64.3894648,66.6740469 64.3894648,71.2405352 C64.3894648,72.1540469 64.8459531,73.0670234 66.2159531,73.9805352 C73.9794648,78.0905352 78.5459531,86.3105352 77.1759531,94.5305352 C76.2635117,105.033512 67.13,113.253512 56.17,113.253512 Z M13.7,104.12 L56.17,104.12 C62.5635117,104.12 68.0435117,99.5535117 68.5,94.0735117 C68.9564883,89.05 66.6735117,84.4835117 62.1064883,82.6570234 C57.9964883,80.3735117 55.2564883,76.2635117 55.7129766,72.1535117 C55.7129766,69.4135117 55.2564883,67.13 53.4294648,64.39 C50.6894648,59.8235117 46.1229766,56.17 41.0994648,55.7135117 C40.1859531,55.7135117 39.7294648,55.7135117 38.8159531,55.7135117 C26.9435117,68.9564883 18.2664883,85.8535117 13.7,104.12 Z" id="Shape"></path>
                </g>
            </g>
        </g>
    </g>
</svg>