<?xml version="1.0" encoding="UTF-8"?>
<svg width="372px" height="150px" viewBox="0 0 372 150" version="1.1" xmlns="http://www.w3.org/2000/svg" xmlns:xlink="http://www.w3.org/1999/xlink">
    <!-- Generator: Sketch 50.2 (55047) - http://www.bohemiancoding.com/sketch -->
    <title>canvas-parallax-mountains</title>
    <desc>Created with Sketch.</desc>
    <defs>
        <linearGradient x1="46.337536%" y1="53.407183%" x2="46.3375346%" y2="0%" id="linearGradient-1">
            <stop stop-color="#E0E8E9" offset="0%"></stop>
            <stop stop-color="#C5D7E3" offset="100%"></stop>
        </linearGradient>
    </defs>
    <g id="Page-1" stroke="none" stroke-width="1" fill="none" fill-rule="evenodd">
        <g id="canvas-parallax-mountains">
            <rect id="Rectangle-4" fill="url(#linearGradient-1)" x="0" y="0" width="372" height="149.006623"></rect>
            <path d="M0,149.07829 L0,70.5596166 C13.2174466,83.9879364 24.3201184,90.7020963 33.3080156,90.7020963 C46.8618807,90.7020963 51.3783574,88.1796813 63.7536128,76.563321 C70.9146296,69.8414434 81.7689952,54.7727689 94.4429804,54.7727689 C115.465672,54.7727689 117.005915,69.9077471 140.804858,70.5596166 C150.834699,70.8343409 160.311469,54.6651944 178.502999,54.7727689 C183.122704,54.8000872 189.667911,56.6667972 195.720121,60.3774938 C201.997046,64.2259655 207.857278,69.9337242 216.957218,70.5596166 C221.507925,70.8726135 226.046391,68.5420802 230.428174,64.2875154 C233.340154,61.4600797 226.851243,67.9458497 237.673873,57.7419754 C248.496503,47.538101 265.254286,50.0596918 272.952149,54.7727689 C288.238527,64.1319739 297.219464,79.5182162 309.205028,79.5182162 C312.675486,79.5182162 321.240718,77.8335576 326.456377,72.9649519 C332.186601,67.6160204 334.65898,58.9870007 340.319374,57.7419754 C345.920509,56.5099841 350.316374,62.8309238 354.183926,66.9585654 C357.469335,70.4649149 358.738222,71.6004192 361.903395,72.9649519 C364.126553,73.9233738 366.389019,74.0063438 368.950794,72.9649519 C369.834081,72.6058853 370.850483,71.8041068 372,70.5596166 L372,149.07829 L0,149.07829 Z" id="Path-4" fill="#B4C2B4"></path>
            <path d="M0,149.258419 L0,75.3852005 C35.7437985,72.7028015 64.591252,72.3093556 86.5423606,74.2048626 C119.469024,77.0481232 128.537642,85.5466348 142.366714,85.5466348 C159.28186,85.5466348 173.00657,69.5364238 229.6226,69.5364238 C296.813204,69.5364238 282.268012,85.1978615 318.847765,87.5907496 C326.675317,88.1027939 339.263918,83.2487977 355.7252,78.2754697 C359.139959,77.2437933 364.564892,76.2803703 372,75.3852005 L372,149.258419 L0,149.258419 Z" id="Path-5" fill="#97AD98"></path>
            <path d="M0,101.763185 L0,148.533838 L372,148.533838 L372,98.07891 C351.651366,94.6418411 336.406857,93.089324 326.266476,93.4213588 C279.144651,94.964307 242.899745,103.012796 217.944661,103.012796 C179.17618,103.012796 159.437329,93.1476357 140.086243,93.4213588 C113.111698,93.8029164 91.2031776,104.257101 69.9398944,104.257101 C48.3756573,104.257101 25.0623592,103.425795 0,101.763185 Z" id="Path-6" fill="#738D70"></path>
            <path d="M0,148.377517 L0,118.228215 C46.03463,133.235954 80.7704114,140.558409 104.207344,140.19558 C156.265939,139.389658 254.606034,114.238411 295.570848,114.238411 C329.178909,114.238411 354.655293,116.321317 372,120.48713 L372,148.377517 L0,148.377517 Z" id="Path-7" fill="#5E6F5F"></path>
            <path d="M0,149.026511 L372,149.026511 L372,129.975984 C353.755364,128.860103 335.08699,128.860103 315.994878,129.975984 C289.346836,131.533488 270.450157,139.082792 209.854471,139.082792 C182.708166,139.082792 161.833882,136.128571 109.619802,134.487047 C80.4532334,133.570099 43.9132993,132.066411 0,129.975984 L0,149.026511 Z" id="Path-3" fill="#3D4E3E"></path>
        </g>
    </g>
</svg>