<?xml version="1.0" encoding="UTF-8"?>
<svg width="400px" height="300px" viewBox="0 0 400 300" version="1.1" xmlns="http://www.w3.org/2000/svg" xmlns:xlink="http://www.w3.org/1999/xlink">
    <!-- Generator: Sketch 51 (57462) - http://www.bohemiancoding.com/sketch -->
    <title>Artboard</title>
    <desc>Created with Sketch.</desc>
    <defs></defs>
    <g id="Artboard" stroke="none" stroke-width="1" fill="none" fill-rule="evenodd">
        <rect fill="#333230" x="0" y="0" width="400" height="300"></rect>
        <path d="M0,206.499983 C33.3333333,181.499994 66.6666667,169 100,169 C133.333333,169 166.666667,181.499994 200,206.499983 C233.26517,231.476114 266.598503,243.976108 300,243.999966 C333.282472,244.023739 366.615805,231.523745 400,206.499983 C433.333333,181.499994 466.666667,169 500,169 C533.333333,169 566.666667,181.499994 600,206.499983 C633.26517,231.476114 666.598503,243.976108 700,243.999966 C733.282472,244.023739 766.615805,231.523745 800,206.499983 L800,431.209597 L0,431.209597 L0,206.499983 Z" id="Line-Copy-5" fill-opacity="0.5" fill="#D4D4D4" fill-rule="nonzero"></path>
        <path d="M-69,183.499983 C-35.6666667,158.499994 -2.33333333,146 31,146 C64.3333333,146 97.6666667,158.499994 131,183.499983 C164.26517,208.476114 197.598503,220.976108 231,220.999966 C264.282472,221.023739 297.615805,208.523745 331,183.499983 C364.333333,158.499994 397.666667,146 431,146 C464.333333,146 497.666667,158.499994 531,183.499983 C564.26517,208.476114 597.598503,220.976108 631,220.999966 C664.282472,221.023739 697.615805,208.523745 731,183.499983 L731,408.209597 L-69,408.209597 L-69,183.499983 Z" id="Line-Copy-7" fill-opacity="0.4" fill="#D4D4D4" fill-rule="nonzero"></path>
        <path d="M-338,191.499983 C-304.666667,166.499994 -271.333333,154 -238,154 C-204.666667,154 -171.333333,166.499994 -138,191.499983 C-104.73483,216.476114 -71.4014968,228.976108 -38,228.999966 C-4.7175282,229.023739 28.6158051,216.523745 62,191.499983 C95.3333333,166.499994 128.666667,154 162,154 C195.333333,154 228.666667,166.499994 262,191.499983 C295.26517,216.476114 328.598503,228.976108 362,228.999966 C395.282472,229.023739 428.615805,216.523745 462,191.499983 L462,416.209597 L-338,416.209597 L-338,191.499983 Z" id="Line-Copy-6" fill-opacity="0.4" fill="#D4D4D4" fill-rule="nonzero"></path>
        <path d="M-173,196.499983 C-139.666667,171.499994 -106.333333,159 -73,159 C-39.6666667,159 -6.33333333,171.499994 27,196.499983 C60.2651698,221.476114 93.5985032,233.976108 127,233.999966 C160.282472,234.023739 193.615805,221.523745 227,196.499983 C260.333333,171.499994 293.666667,159 327,159 C360.333333,159 393.666667,171.499994 427,196.499983 C460.26517,221.476114 493.598503,233.976108 527,233.999966 C560.282472,234.023739 593.615805,221.523745 627,196.499983 L627,421.209597 L-173,421.209597 L-173,196.499983 Z" id="Line-Copy-9" fill-opacity="0.4" fill="#D4D4D4" fill-rule="nonzero"></path>
        <path d="M-130,250.499983 C-96.6666667,225.499994 -63.3333333,213 -30,213 C3.33333333,213 36.6666667,225.499994 70,250.499983 C103.26517,275.476114 136.598503,287.976108 170,287.999966 C203.282472,288.023739 236.615805,275.523745 270,250.499983 C303.333333,225.499994 336.666667,213 370,213 C403.333333,213 436.666667,225.499994 470,250.499983 C503.26517,275.476114 536.598503,287.976108 570,287.999966 C603.282472,288.023739 636.615805,275.523745 670,250.499983 L670,475.209597 L-130,475.209597 L-130,250.499983 Z" id="Line-Copy-8" fill="#D4D4D4" fill-rule="nonzero"></path>
    </g>
</svg>