<?xml version="1.0" encoding="UTF-8"?>
<svg width="512px" height="512px" viewBox="0 0 512 512" version="1.1" xmlns="http://www.w3.org/2000/svg" xmlns:xlink="http://www.w3.org/1999/xlink">
    <title>icon copy 3</title>
    <g id="icon-copy-3" stroke="none" stroke-width="1" fill="none" fill-rule="evenodd">
        <rect fill="#000000" x="0" y="0" width="512" height="512"></rect>
        <polygon id="Rectangle-12" fill="#000000" fill-rule="nonzero" points="154 279 173.813668 279 173.813668 246.770767 196.342383 246.770767 196.342383 202.649248 215.173959 202.649248 215.173959 168.822751 240.189232 168.822751 240.189232 117.004672 275.617242 117.004672 275.617242 168.822751 299.311486 168.822751 299.311486 202.649248 315.448684 202.649248 315.448684 246.770767 344.258466 246.770767 344.258466 279 363 279 363 310 154 310"></polygon>
        <g id="Group" transform="translate(100.000000, 22.000000)" fill-rule="nonzero">
            <path d="M281.058883,398.857143 L307,398.857143 L307,296 L13,296 L13,398.857143 L38.9411169,398.857143 L38.9411169,445.142857 C75.2586805,464.857478 115.900101,476 160,476 C204.099899,476 244.74132,464.857478 281.058883,445.142857 L281.058883,398.857143 Z" id="Shape" fill="#000000"></path>
            <polygon id="Shape" fill="#000000" points="138 471 173 471 173 377 138 377"></polygon>
            <polygon id="Shape" fill="#000000" points="52 343 78 343 78 317 52 317"></polygon>
            <polygon id="Shape" fill="#000000" points="113 343 139 343 139 317 113 317"></polygon>
            <polygon id="Shape" fill="#000000" points="174 343 200 343 200 317 174 317"></polygon>
            <polygon id="Shape" fill="#000000" points="234 343 260 343 260 317 234 317"></polygon>
            <path d="M208,466 C220.250461,463.432702 231.625231,460.009972 243,456.58624 L243,377 L208,377 L208,466 Z" id="Shape" fill="#000000"></path>
            <path d="M69,455.601679 C80.3747693,459.873825 91.750564,463.290941 104,465 L104,377 L69,377 L69,455.601679 Z" id="Shape" fill="#000000"></path>
            <path d="M271,299 L45,299 L45,248 L271,248 L271,299 L271,299 Z M62.3839102,281.999668 L253.614053,281.999668 L253.614053,264.999336 L62.3839102,264.999336 L62.3839102,281.999668 Z" id="Shape" fill="#FFFFFF"></path>
            <path d="M63,265 L63,214 L254,214 L254,265 L63,265 Z M80.3639138,247.999668 L236.636086,247.999668 L236.636086,230.999336 L80.3639138,230.999336 L80.3639138,247.999668 Z" id="Shape" fill="#FFFFFF"></path>
            <path d="M182,479 L130,479 L130,368 L182,368 L182,479 Z M147.333672,461.922692 L164.667344,461.922692 L164.667344,385.076307 L147.333672,385.076307 L147.333672,461.922692 L147.333672,461.922692 Z" id="Shape" fill="#FFFFFF"></path>
            <path d="M182,231 L130,231 L130,85 L182,85 L182,231 Z M147.333672,213.824121 L164.667344,213.824121 L164.667344,102.175879 L147.333672,102.175879 L147.333672,213.824121 L147.333672,213.824121 Z" id="Shape" fill="#FFFFFF"></path>
            <path d="M156.5,102 C151.399801,102 148,98.6002988 148,93.500249 L148,8.49975097 C148,3.39970117 151.399801,0 156.5,0 C161.600199,0 165,3.39970117 165,8.49975097 L165,93.500249 C165,98.6002988 161.600199,102 156.5,102 Z" id="Shape" fill="#FFFFFF"></path>
            <path d="M173.333503,205 L138.666497,205 C133.466396,205 130,201.600199 130,196.5 C130,191.399801 133.466396,188 138.666497,188 L173.333503,188 C178.533604,188 182,191.399801 182,196.5 C182,201.600199 178.533604,205 173.333503,205 Z" id="Shape" fill="#FFFFFF"></path>
            <path d="M173.333503,180 L138.666497,180 C133.466396,180 130,176.600199 130,171.5 C130,166.399801 133.466396,163 138.666497,163 L173.333503,163 C178.533604,163 182,166.399801 182,171.5 C182,176.600199 178.533604,180 173.333503,180 Z" id="Shape" fill="#FFFFFF"></path>
            <path d="M173.333503,155 L138.666497,155 C133.466396,155 130,151.600199 130,146.5 C130,141.399801 133.466396,138 138.666497,138 L173.333503,138 C178.533604,138 182,141.399801 182,146.5 C182,151.600199 178.533604,155 173.333503,155 Z" id="Shape" fill="#FFFFFF"></path>
            <path d="M173.333503,127 L138.666497,127 C133.466396,127 130,123.600199 130,118.5 C130,113.399801 133.466396,110 138.666497,110 L173.333503,110 C178.533604,110 182,113.399801 182,118.5 C182,123.600199 178.533604,127 173.333503,127 Z" id="Shape" fill="#FFFFFF"></path>
            <path d="M89,350 L45,350 L45,307 L89,307 L89,350 Z M62.6002062,332.799798 L71.3997938,332.799798 L71.3997938,324.200202 L62.6002062,324.200202 L62.6002062,332.799798 Z" id="Shape" fill="#FFFFFF"></path>
            <path d="M147,350 L103,350 L103,307 L147,307 L147,350 Z M120.600206,332.799798 L129.399794,332.799798 L129.399794,324.200202 L120.600206,324.200202 L120.600206,332.799798 Z" id="Shape" fill="#FFFFFF"></path>
            <path d="M208,350 L164,350 L164,307 L208,307 L208,350 Z M181.600206,332.799798 L190.399794,332.799798 L190.399794,324.200202 L181.600206,324.200202 L181.600206,332.799798 Z" id="Shape" fill="#FFFFFF"></path>
            <path d="M272,350 L228,350 L228,307 L272,307 L272,350 Z M245.600206,332.799798 L254.399794,332.799798 L254.399794,324.200202 L245.600206,324.200202 L245.600206,332.799798 Z" id="Shape" fill="#FFFFFF"></path>
            <path d="M148,230 L87,230 L87,172.284025 L104.427988,172.284025 L104.427988,138 L148,138 L148,230 Z M104.427988,215.13981 L130.570991,215.13981 L130.570991,155.142515 L121.856997,155.142515 L121.856997,189.42654 L104.427988,189.42654 L104.427988,215.13981 Z" id="Shape" fill="#FFFFFF"></path>
            <path d="M225,231 L164,231 L164,137 L207.570991,137 L207.570991,171.182364 L225,171.182364 L225,231 Z M181.427988,213.909819 L207.570991,213.909819 L207.570991,188.273547 L190.141982,188.273547 L190.141982,154.092184 L181.427988,154.092184 L181.427988,213.909819 Z" id="Shape" fill="#FFFFFF"></path>
            <path d="M156,480 C111.8,480 68.4663281,468.865571 30.3336719,448.309084 L26,445.739523 L26,402.913174 L0,402.913174 L0,283 L312,283 L312,402.913174 L286,402.913174 L286,445.739523 L281.666328,448.309084 C243.533672,468.865571 200.2,480 156,480 Z M43.3336719,435.46128 C78,453.448206 117,462.86926 156,462.86926 C195,462.86926 234,453.447202 268.666328,435.460276 L268.666328,385.782434 L294.666328,385.782434 L294.666328,300.13074 L17.3336719,300.13074 L17.3336719,385.782434 L43.3336719,385.782434 L43.3336719,435.46128 Z" id="Shape" fill="#FFFFFF"></path>
            <path d="M200,475 L200,368 L252,368 L252,460.56316 L245.933672,462.261905 C234.667344,466.508268 222.533672,469.904762 210.4,472.452381 L200,475 Z M217.332656,384.983464 L217.332656,453.769178 C223.398984,452.070433 228.598984,450.372684 234.666328,448.67394 L234.666328,384.983464 L217.332656,384.983464 Z" id="Shape" fill="#FFFFFF"></path>
            <path d="M115,475 L104.6,472.452381 C92.4663281,469.904762 80.3336719,466.508268 69.0663281,462.261905 L63,460.56316 L63,368 L115,368 L115,475 L115,475 Z M80.3336719,448.67394 C86.4,450.372684 91.6,452.070433 97.6673438,453.769178 L97.6673438,384.983464 L80.3336719,384.983464 L80.3336719,448.67394 Z" id="Shape" fill="#FFFFFF"></path>
        </g>
    </g>
</svg>